<svg width="50" height="50" viewBox="0 0 50 50" fill="none" xmlns="http://www.w3.org/2000/svg">
<circle cx="25" cy="25" r="24" fill="white" stroke="#6E479E" stroke-width="2"/>
<path d="M19.3759 36C18.9159 36 18.5859 35.9 18.3859 35.7C18.1859 35.48 18.0859 35.19 18.0859 34.83C18.0859 34.41 18.2959 33.98 18.7159 33.54L25.4359 26.34C26.4559 25.24 27.1859 24.23 27.6259 23.31C28.0859 22.37 28.3159 21.42 28.3159 20.46C28.3159 18 26.8859 16.77 24.0259 16.77C22.2459 16.77 20.6259 17.34 19.1659 18.48C18.8459 18.72 18.5559 18.81 18.2959 18.75C18.0359 18.67 17.8359 18.51 17.6959 18.27C17.5759 18.03 17.5259 17.77 17.5459 17.49C17.5859 17.19 17.7559 16.93 18.0559 16.71C18.8359 16.07 19.7759 15.56 20.8759 15.18C21.9759 14.78 23.0959 14.58 24.2359 14.58C26.3559 14.58 27.9759 15.08 29.0959 16.08C30.2359 17.06 30.8059 18.46 30.8059 20.28C30.8059 21.54 30.4959 22.78 29.8759 24C29.2759 25.2 28.3259 26.48 27.0259 27.84L21.3259 33.9H30.7459C31.5059 33.9 31.8859 34.24 31.8859 34.92C31.8859 35.64 31.5059 36 30.7459 36H19.3759Z" fill="#6E479E"/>
</svg>
