<svg width="50" height="50" viewBox="0 0 50 50" fill="none" xmlns="http://www.w3.org/2000/svg">
<circle cx="25" cy="25" r="24.5" fill="white" stroke="#C6B6D7"/>
<path d="M24.2659 36.27C23.0859 36.27 21.9159 36.1 20.7559 35.76C19.5959 35.42 18.5859 34.92 17.7259 34.26C17.4059 34.02 17.2159 33.76 17.1559 33.48C17.1159 33.18 17.1559 32.91 17.2759 32.67C17.4159 32.43 17.6259 32.28 17.9059 32.22C18.1859 32.14 18.4959 32.21 18.8359 32.43C19.7159 33.01 20.5959 33.43 21.4759 33.69C22.3559 33.95 23.2659 34.08 24.2059 34.08C25.7259 34.08 26.8859 33.75 27.6859 33.09C28.5059 32.41 28.9159 31.42 28.9159 30.12C28.9159 28.88 28.5059 27.94 27.6859 27.3C26.8659 26.66 25.6759 26.34 24.1159 26.34H21.9859C21.2059 26.34 20.8159 25.98 20.8159 25.26C20.8159 24.56 21.2059 24.21 21.9859 24.21H23.9059C25.2659 24.21 26.3359 23.86 27.1159 23.16C27.9159 22.44 28.3159 21.46 28.3159 20.22C28.3159 19.12 27.9459 18.27 27.2059 17.67C26.4859 17.07 25.4559 16.77 24.1159 16.77C23.1959 16.77 22.3359 16.9 21.5359 17.16C20.7559 17.42 19.9759 17.86 19.1959 18.48C18.8959 18.7 18.6059 18.78 18.3259 18.72C18.0659 18.66 17.8559 18.52 17.6959 18.3C17.5559 18.06 17.5059 17.79 17.5459 17.49C17.6059 17.19 17.7959 16.92 18.1159 16.68C18.8959 16.02 19.8259 15.51 20.9059 15.15C21.9859 14.77 23.1059 14.58 24.2659 14.58C26.3059 14.58 27.8959 15.06 29.0359 16.02C30.1959 16.98 30.7759 18.31 30.7759 20.01C30.7759 21.19 30.4759 22.23 29.8759 23.13C29.2759 24.01 28.4459 24.65 27.3859 25.05C28.6459 25.39 29.6259 26.02 30.3259 26.94C31.0259 27.84 31.3759 28.96 31.3759 30.3C31.3759 32.12 30.7359 33.57 29.4559 34.65C28.1959 35.73 26.4659 36.27 24.2659 36.27Z" fill="#C6B6D7"/>
</svg>
