<svg width="50" height="50" viewBox="0 0 50 50" fill="none" xmlns="http://www.w3.org/2000/svg">
<circle cx="25" cy="25" r="24.5" fill="white" stroke="#C6B6D7"/>
<path d="M20.1559 36C19.3959 36 19.0159 35.64 19.0159 34.92C19.0159 34.24 19.3959 33.9 20.1559 33.9H24.0559V17.73L20.9959 19.77C20.6759 19.97 20.3759 20.03 20.0959 19.95C19.8359 19.85 19.6359 19.68 19.4959 19.44C19.3559 19.2 19.3059 18.94 19.3459 18.66C19.4059 18.38 19.5959 18.13 19.9159 17.91L24.0559 15.18C24.3159 15.02 24.5659 14.89 24.8059 14.79C25.0459 14.69 25.2859 14.64 25.5259 14.64C25.8059 14.64 26.0359 14.73 26.2159 14.91C26.4159 15.07 26.5159 15.33 26.5159 15.69V33.9H30.1159C30.8759 33.9 31.2559 34.24 31.2559 34.92C31.2559 35.64 30.8759 36 30.1159 36H20.1559Z" fill="#C6B6D7"/>
</svg>
